<svg xmlns="http://www.w3.org/2000/svg" id="Layer_2" data-name="Layer 2" viewBox="0 0 242.02 241.52"><defs><style>.cls-1{fill:#88a392}</style></defs><g id="Lógó"><path d="M121.02 0C54.29 0 0 54.17 0 120.76s54.29 120.76 121.02 120.76 121.01-54.17 121.01-120.76S187.74 0 121.02 0Zm0 225.52c-57.91 0-105.02-47-105.02-104.76S63.11 16 121.02 16s105.01 47 105.01 104.76-47.11 104.76-105.01 104.76Z" class="cls-1"/><path d="M213.64 89.33h-61.19V28.14h-9v61.19H98.59V28.14h-9v61.19h-61.2v9h61.19v44.86H28.39v9h61.19v61.19h9v-61.19h44.86v61.19h9v-61.19h61.19v-9h-61.19V98.33h61.19v-9Zm-70.2 53.86H98.58V98.33h44.86v44.86Z" class="cls-1"/><path d="M63.02 51.8 45.64 81.97l34.83-.03L63.02 51.8zM45.64 135.85l34.83-.03-17.44-30.14-17.39 30.17zM45.64 189.73l34.83-.03-17.44-30.14-17.39 30.17zM178.94 51.79l-17.39 30.18 34.83-.03-17.44-30.15zM196.38 135.81l-17.44-30.14-17.38 30.18 34.82-.04zM161.56 189.72l34.82-.02-17.44-30.15-17.38 30.17zM138.42 135.82l-17.44-30.14-17.38 30.17 34.82-.03zM103.6 189.73l34.82-.03-17.44-30.14-17.38 30.17z" class="cls-1"/></g></svg>